<svg width="88" height="88" viewBox="0 0 88 88" fill="none" xmlns="http://www.w3.org/2000/svg">
<path d="M44 8.25C24.2877 8.25 8.25 24.2877 8.25 44C8.25 63.7123 24.2877 79.75 44 79.75C63.7123 79.75 79.75 63.7123 79.75 44C79.75 24.2877 63.7123 8.25 44 8.25ZM57.75 46.75H46.75V57.75C46.75 58.4793 46.4603 59.1788 45.9445 59.6945C45.4288 60.2103 44.7293 60.5 44 60.5C43.2707 60.5 42.5712 60.2103 42.0555 59.6945C41.5397 59.1788 41.25 58.4793 41.25 57.75V46.75H30.25C29.5207 46.75 28.8212 46.4603 28.3055 45.9445C27.7897 45.4288 27.5 44.7293 27.5 44C27.5 43.2707 27.7897 42.5712 28.3055 42.0555C28.8212 41.5397 29.5207 41.25 30.25 41.25H41.25V30.25C41.25 29.5207 41.5397 28.8212 42.0555 28.3055C42.5712 27.7897 43.2707 27.5 44 27.5C44.7293 27.5 45.4288 27.7897 45.9445 28.3055C46.4603 28.8212 46.75 29.5207 46.75 30.25V41.25H57.75C58.4793 41.25 59.1788 41.5397 59.6945 42.0555C60.2103 42.5712 60.5 43.2707 60.5 44C60.5 44.7293 60.2103 45.4288 59.6945 45.9445C59.1788 46.4603 58.4793 46.75 57.75 46.75Z" fill="#FFA303"/>
</svg>
