<svg width="299" height="260" viewBox="0 0 299 260" fill="none" xmlns="http://www.w3.org/2000/svg">
<path d="M109.598 254.795L103.653 254.795L100.826 231.865L109.599 231.866L109.598 254.795Z" fill="#A0616A"/>
<path d="M89.231 254.661C89.0459 254.972 88.9482 255.978 88.9482 256.341C88.9482 257.455 89.8515 258.359 90.9659 258.359H109.376C110.136 258.359 110.752 257.742 110.752 256.982V256.216C110.752 256.216 111.663 253.912 109.788 251.073C109.788 251.073 107.458 253.296 103.975 249.814L102.948 247.954L95.5154 253.39L91.3953 253.897C90.4939 254.008 89.6947 253.88 89.2311 254.661H89.231Z" fill="#2F2E41"/>
<path d="M82.9631 254.795L77.0185 254.795L74.1906 231.865L82.9643 231.866L82.9631 254.795Z" fill="#A0616A"/>
<path d="M62.5959 254.661C62.4108 254.972 62.3131 255.978 62.3131 256.341C62.3131 257.455 63.2164 258.359 64.3308 258.359H82.7407C83.5008 258.359 84.1171 257.742 84.1171 256.982V256.216C84.1171 256.216 85.0278 253.912 83.1528 251.073C83.1528 251.073 80.8224 253.296 77.3402 249.814L76.3134 247.954L68.8802 253.39L64.7602 253.897C63.8588 254.008 63.0596 253.88 62.5959 254.661H62.5959Z" fill="#2F2E41"/>
<path d="M110.109 110.942L115.643 125.124L111.319 238.41H99.2124L88.3162 136.193L85.7219 238.756L73.9609 238.41L61.1622 124.605L69.6371 114.401L110.109 110.942Z" fill="#2F2E41"/>
<path d="M83.9923 30.5173L98.5206 29.4796L103.017 36.7437L116.508 40.5487L111.492 75.6587L116.854 128.064C116.854 128.064 97.4828 125.297 96.0992 130.832C94.7156 136.366 60.8163 125.297 60.8163 125.297L72.4043 89.4951L71.3666 61.4763L68.2534 45.2185L82.4357 38.6462L83.9923 30.5173Z" fill="#E6E6E6"/>
<path d="M77.42 40.8946C77.42 40.8946 65.8429 40.7217 64.2808 45.5644C62.7188 50.4072 57.5301 83.9605 57.5301 83.9605L53.5521 98.6617L71.3666 89.841L67.5615 83.97L80.0143 60.0927L77.42 40.8946H77.42Z" fill="#E6E6E6"/>
<path d="M84.5025 94.6838C86.4167 94.6858 88.1963 93.5826 88.9406 91.8189C89.5034 90.4852 89.4503 89.2055 89.0292 88.1084C89.1647 88.0522 89.2991 87.9938 89.4378 87.9442C89.234 87.8616 89.0359 87.7682 88.8379 87.6748C88.1483 86.3004 86.8263 85.303 85.2517 85.0608C83.3013 82.9715 82.1024 80.1721 82.0899 77.0911C82.0642 70.7412 87.2152 65.4372 93.5633 65.2848C93.6132 65.2836 93.6631 65.2827 93.713 65.2822C96.5556 65.2494 99.1342 66.8395 100.574 69.2905C101.415 70.7207 102.968 71.6807 104.747 71.6807C106.109 71.6807 107.338 71.1176 108.216 70.2118C110.13 68.2382 112.526 66.7698 115.238 66.3193C117.019 66.0234 118.862 65.9118 120.748 66.0055C133.657 66.6473 144.764 78.0888 145.04 91.0113C145.347 105.404 133.771 117.168 119.448 117.168C111.995 117.168 105.29 113.981 100.613 108.897C98.537 106.64 95.6276 105.375 92.5609 105.407C92.5297 105.407 92.4985 105.407 92.4672 105.407C87.5001 105.407 83.4735 101.38 83.4735 96.4134C83.4735 96.1379 83.4872 95.8658 83.5129 95.5972C83.5609 95.0949 83.9979 94.6833 84.5025 94.6838L84.5025 94.6838Z" fill="#F9A826"/>
<path d="M127.058 87.0737L40.9264 70.8159L40.5804 77.0423L126.02 97.4511L127.058 87.0737Z" fill="#F9A826"/>
<path d="M41.9641 71.8537L40.9263 70.816C40.9263 70.816 36.4295 68.7405 36.4295 68.3946C36.4295 68.1781 29.7892 65.9288 24.8211 64.2763C22.0465 63.3534 19.1164 65.1797 18.7213 68.0769L18.0987 72.6424C17.7265 75.3723 19.7862 77.8295 22.5392 77.9396L34.6999 78.426L40.5804 77.0424L41.9641 71.8537Z" fill="#F9A826"/>
<path d="M126.885 88.9762L127.091 88.1144L40.9037 71.6374L40.7534 72.7184L126.885 88.9762Z" fill="#3F3D56"/>
<path d="M126.688 90.6126L126.885 89.6681L40.81 73.343L40.7534 74.448L126.688 90.6126Z" fill="#3F3D56"/>
<path d="M126.49 92.5736L126.539 91.0518L40.7424 74.5849L40.7534 75.4858L126.49 92.5736Z" fill="#3F3D56"/>
<path d="M126.261 94.8511L126.194 93.4732L40.6173 75.8263L40.5437 76.1641L126.261 94.8511Z" fill="#3F3D56"/>
<path d="M126.259 96.2319L126.193 95.2027L40.746 76.3971L40.6693 76.7343L126.259 96.2319Z" fill="#3F3D56"/>
<path d="M76.7664 38.6891L81.0521 36.316L82.9111 74.275L82.2628 78.9448C82.2628 78.9448 71.4429 49.1095 76.7664 38.6891H76.7664Z" fill="#3F3D56"/>
<path d="M91.4294 26.8852C97.3517 26.8852 102.153 22.0842 102.153 16.162C102.153 10.2397 97.3517 5.43872 91.4294 5.43872C85.5071 5.43872 80.7062 10.2397 80.7062 16.162C80.7062 22.0842 85.5071 26.8852 91.4294 26.8852Z" fill="#A0616A"/>
<path d="M82.2629 22.5613L84.8264 24.6078L81.9169 13.5676C81.9169 13.5676 90.0459 13.3947 90.7377 8.89782C90.7377 8.89782 97.137 8.72487 98.8666 8.72487C100.596 8.72487 101.377 20.1691 101.377 20.1691C101.377 20.1691 104.747 10.8003 101.288 5.95758C97.8288 1.11483 99.0395 4.05508 98.3477 2.32552C97.6559 0.595969 90.5647 -0.994678 86.0679 0.768923C81.571 2.53252 81.3981 5.04651 80.0144 5.06966C78.6308 5.09281 73.788 12.011 78.2849 17.5456C82.7817 23.0802 82.2629 22.5613 82.2629 22.5613Z" fill="#2F2E41"/>
<path d="M115.023 92.9296C116.294 91.9154 117.231 90.6983 117.758 89.4953L130.477 80.599L126.066 74.671L113.64 84.3336C112.35 84.5812 110.955 85.2241 109.684 86.2383C106.78 88.5551 105.622 91.9311 107.096 93.7789C108.57 95.6266 112.119 95.2464 115.023 92.9296Z" fill="#A0616A"/>
<path d="M66.2973 79.3975C65.3542 80.7221 64.7884 82.1499 64.6118 83.4516L54.8306 95.5025L60.701 99.9891L69.9911 87.2816C71.1635 86.6888 72.3275 85.687 73.2706 84.3625C75.4251 81.3365 75.6106 77.772 73.685 76.4009C71.7594 75.0299 68.4518 76.3715 66.2973 79.3975L66.2973 79.3975Z" fill="#A0616A"/>
<path d="M110.973 42.7971C110.973 42.7971 114.087 37.6085 117.2 40.7217C119.663 43.1852 133.173 58.8609 138.705 65.2966C140.23 67.0714 141.068 69.3327 141.068 71.6729C141.068 75.2929 139.069 78.617 135.872 80.3148L118.583 89.4952L113.741 82.231L128.615 71.5078L105.785 59.055L110.973 42.7971V42.7971Z" fill="#E6E6E6"/>
<path d="M56.3058 90.6126L53.5521 98.6618L61.5081 102.813L67.5615 98.6618L71.3666 89.8411L60.1244 86.5549" fill="#E6E6E6"/>
<path d="M192.359 13.4659L166.226 20.5647L170.029 37.5217C168.799 36.6967 167.32 36.2145 165.728 36.2145C161.46 36.2145 158 39.6746 158 43.9428C158 48.2111 161.46 51.6712 165.728 51.6712C169.997 51.6712 173.457 48.2111 173.457 43.9428C173.457 42.4593 173.031 41.0783 172.307 39.9014L169.292 26.4574L191.837 19.3695L193.898 29.384C192.661 28.5421 191.167 28.0492 189.557 28.0492C185.289 28.0492 181.829 31.5093 181.829 35.7775C181.829 40.0458 185.289 43.5059 189.557 43.5059C193.826 43.5059 197.286 40.0458 197.286 35.7775C197.286 34.2782 196.852 32.8833 196.113 31.6984L192.359 13.4659Z" fill="#F9A826"/>
<path d="M217.988 29.3172C213.764 29.3172 210.34 32.7414 210.34 36.9653C210.34 38.1593 210.622 39.285 211.11 40.2919L215.475 58.2979L217.953 57.6973L214.585 43.8071C215.611 44.3185 216.764 44.6134 217.988 44.6134C222.212 44.6134 225.636 41.1892 225.636 36.9653C225.636 32.7414 222.212 29.3172 217.988 29.3172Z" fill="#F9A826"/>
<path d="M249.113 69.0023L244.779 51.6712L242.149 52.2895L245.538 65.8456C244.496 65.3736 243.337 65.1024 242.111 65.1024C237.626 65.1024 233.99 68.6274 233.99 72.9756C233.99 77.3239 237.626 80.8489 242.111 80.8489C246.595 80.8489 250.231 77.3239 250.231 72.9756C250.231 71.5245 249.819 70.1696 249.113 69.0023V69.0023Z" fill="#F9A826"/>
<path d="M297.489 174.294C296.698 172.96 293.276 174.388 292.647 173.178C292.02 171.972 295.199 170.134 297.015 165.937C297.343 165.18 299.407 160.409 297.879 158.937C294.983 156.147 281.729 167.661 277.091 163.893C276.073 163.066 275.362 161.416 272.281 158.735C271.055 157.669 270.314 157.188 269.597 157.367C268.579 157.621 268.499 158.983 267.407 161.661C265.771 165.678 264.803 165.435 263.849 168.639C263.141 171.018 263.303 172.401 262.47 172.671C261.291 173.052 260.206 170.529 258.713 170.755C257.188 170.985 256.267 173.923 255.976 176.123C255.429 180.25 256.945 182.974 257.785 185.838C258.698 188.95 259.24 193.683 257.132 200.384L236.262 259.184C240.87 247.118 254.21 214.043 259.816 201.753C261.434 198.204 263.221 194.606 266.889 193.185C270.422 191.818 275.272 192.634 281.457 191.144C282.179 190.97 284.183 190.46 284.436 189.282C284.644 188.307 283.465 187.763 283.647 186.85C283.889 185.626 286.208 185.611 289.057 184.198C291.066 183.202 292.317 182.017 293.394 180.999C293.718 180.691 298.541 176.069 297.489 174.294Z" fill="#F9A826"/>
<path d="M215.382 205.249C214.5 205.252 214.213 207.343 213.438 207.303C212.665 207.263 212.68 205.172 211.144 203.069C210.867 202.69 209.121 200.301 207.958 200.626C205.753 201.242 207.58 211.07 204.392 212.259C203.693 212.52 202.677 212.393 200.473 213.131C199.596 213.425 199.146 213.65 199.027 214.054C198.858 214.627 199.503 215.059 200.503 216.368C202.002 218.33 201.603 218.735 202.901 220.127C203.864 221.161 204.59 221.481 204.482 221.967C204.329 222.656 202.777 222.46 202.457 223.259C202.13 224.074 203.306 225.373 204.302 226.151C206.17 227.61 207.944 227.652 209.592 228.066C211.383 228.516 213.863 229.616 216.543 232.584L239.381 259.792C234.789 254.05 222.404 237.959 217.989 231.661C216.715 229.843 215.464 227.928 215.825 225.718C216.173 223.589 217.974 221.444 219.027 217.979C219.15 217.574 219.478 216.443 218.972 215.979C218.554 215.596 217.947 216.017 217.551 215.665C217.02 215.193 217.682 214.05 217.81 212.244C217.901 210.971 217.681 210.015 217.491 209.193C217.434 208.945 216.558 205.244 215.382 205.249V205.249Z" fill="#F9A826"/>
<path d="M232.994 209.202L232.462 204.454L232.705 204.094C233.83 202.43 234.403 200.804 234.41 199.261C234.411 199.016 234.399 198.771 234.388 198.521C234.342 197.53 234.285 196.299 234.927 194.864C235.286 194.064 236.297 192.212 237.817 192.441C238.227 192.498 238.536 192.686 238.771 192.906C238.805 192.851 238.841 192.796 238.879 192.737C239.352 192.015 239.727 191.705 240.088 191.407C240.366 191.178 240.652 190.942 241.102 190.382C241.299 190.137 241.452 189.921 241.582 189.74C241.975 189.192 242.488 188.539 243.394 188.551C244.362 188.596 244.868 189.396 245.204 189.926C245.804 190.871 246.075 191.551 246.255 192.003C246.32 192.168 246.395 192.354 246.433 192.411C246.745 192.87 249.279 192.441 250.234 192.285C252.379 191.927 254.234 191.618 254.999 192.971C255.547 193.938 255.14 195.217 253.753 196.875C253.321 197.391 252.861 197.783 252.453 198.09C252.791 198.292 253.094 198.601 253.216 199.087C253.505 200.238 252.516 201.391 250.277 202.519C249.721 202.801 248.973 203.177 247.924 203.358C247.43 203.443 246.985 203.464 246.605 203.475C246.597 203.695 246.545 203.934 246.411 204.179C246.018 204.901 245.199 205.245 243.966 205.162C242.609 205.091 241.491 204.832 240.505 204.605C239.645 204.408 238.903 204.241 238.321 204.28C237.241 204.367 236.409 205.231 235.432 206.352L232.994 209.202Z" fill="#F9A826"/>
<path d="M235.461 180.933L231.003 182.652L230.594 182.508C228.698 181.842 226.981 181.7 225.487 182.085C225.249 182.146 225.015 182.219 224.776 182.294C223.829 182.589 222.653 182.957 221.102 182.7C220.237 182.555 218.189 182.047 218.025 180.519C217.977 180.108 218.08 179.761 218.233 179.478C218.171 179.459 218.109 179.438 218.042 179.417C217.223 179.142 216.829 178.858 216.449 178.584C216.157 178.374 215.856 178.157 215.201 177.864C214.913 177.736 214.666 177.642 214.458 177.562C213.828 177.321 213.066 176.99 212.847 176.111C212.646 175.164 213.292 174.471 213.719 174.011C214.48 173.192 215.07 172.756 215.461 172.468C215.604 172.363 215.765 172.244 215.811 172.192C216.175 171.775 215.118 169.432 214.725 168.548C213.835 166.564 213.065 164.847 214.179 163.765C214.976 162.989 216.317 163.058 218.272 163.98C218.88 164.267 219.376 164.612 219.777 164.929C219.886 164.55 220.109 164.179 220.548 163.937C221.588 163.366 222.954 164.03 224.613 165.91C225.027 166.376 225.58 167.005 226.021 167.973C226.229 168.43 226.362 168.855 226.469 169.22C226.684 169.172 226.928 169.161 227.199 169.229C227.997 169.426 228.538 170.13 228.771 171.344C229.046 172.675 229.079 173.822 229.11 174.833C229.137 175.716 229.163 176.476 229.349 177.029C229.707 178.051 230.754 178.637 232.086 179.297L235.461 180.933L235.461 180.933Z" fill="#F9A826"/>
<path d="M232.994 166.946L232.462 162.198L232.705 161.838C233.83 160.173 234.403 158.548 234.41 157.005C234.411 156.76 234.399 156.514 234.388 156.265C234.342 155.274 234.285 154.043 234.927 152.608C235.286 151.808 236.297 149.956 237.817 150.185C238.227 150.242 238.536 150.43 238.771 150.65C238.805 150.595 238.841 150.54 238.879 150.48C239.352 149.758 239.727 149.449 240.088 149.151C240.366 148.922 240.652 148.685 241.102 148.126C241.299 147.881 241.452 147.665 241.582 147.484C241.975 146.936 242.488 146.283 243.394 146.294C244.362 146.34 244.868 147.14 245.204 147.67C245.804 148.614 246.075 149.295 246.255 149.747C246.32 149.912 246.395 150.098 246.433 150.155C246.745 150.613 249.279 150.185 250.234 150.029C252.379 149.671 254.234 149.362 254.999 150.714C255.547 151.682 255.14 152.961 253.753 154.619C253.321 155.134 252.861 155.526 252.453 155.834C252.791 156.035 253.094 156.345 253.216 156.831C253.505 157.982 252.516 159.135 250.277 160.263C249.721 160.545 248.973 160.921 247.924 161.102C247.43 161.187 246.985 161.207 246.605 161.219C246.597 161.439 246.545 161.677 246.411 161.923C246.018 162.645 245.199 162.989 243.966 162.906C242.609 162.835 241.491 162.576 240.505 162.349C239.645 162.152 238.903 161.985 238.321 162.023C237.241 162.111 236.409 162.975 235.432 164.096L232.994 166.946Z" fill="#F9A826"/>
<path d="M237.852 259.106L236.857 258.483L236.616 257.334L236.857 258.483L235.697 258.616C235.678 258.508 235.615 258.26 235.52 257.873C235.001 255.75 233.418 249.289 232.098 239.115C231.176 232.013 230.654 224.711 230.547 217.409C230.439 210.096 230.785 204.56 231.062 200.11C231.272 196.753 231.527 193.558 231.777 190.444C232.441 182.127 233.068 174.27 232.602 165.572C232.499 163.631 232.282 159.589 229.921 155.288C228.551 152.794 226.664 150.579 224.312 148.708L225.775 146.87C228.371 148.938 230.458 151.391 231.979 154.16C234.598 158.929 234.834 163.333 234.947 165.449C235.422 174.3 234.788 182.232 234.116 190.63C233.868 193.732 233.614 196.914 233.405 200.256C233.13 204.665 232.788 210.153 232.894 217.373C233 224.587 233.515 231.8 234.424 238.812C235.729 248.858 237.289 255.223 237.801 257.313C238.074 258.43 238.132 258.664 237.852 259.106Z" fill="#F9A826"/>
<path d="M220.007 152.438C219.91 152.438 219.813 152.436 219.714 152.429C217.715 152.321 215.864 151.125 214.211 148.873C213.436 147.814 213.04 146.606 212.249 144.197C212.126 143.825 211.53 141.941 211.168 139.348C210.93 137.654 210.96 136.945 211.296 136.319C211.669 135.622 212.272 135.136 212.95 134.809C212.92 134.584 212.944 134.352 213.042 134.116C213.442 133.137 214.506 133.266 215.081 133.328C215.372 133.364 215.736 133.412 216.128 133.392C216.744 133.362 217.076 133.179 217.578 132.904C218.058 132.64 218.655 132.312 219.541 132.131C221.288 131.766 222.752 132.262 223.234 132.424C225.773 133.27 227.025 135.244 228.474 137.53C228.763 137.988 229.754 139.657 230.409 141.945C230.881 143.596 230.815 144.33 230.673 144.875C230.384 145.996 229.702 146.638 227.97 148.055C226.161 149.538 225.253 150.281 224.474 150.733C222.659 151.78 221.52 152.438 220.007 152.438V152.438Z" fill="#F9A826"/>
</svg>
