<svg width="299" height="236" viewBox="0 0 299 236" fill="none" xmlns="http://www.w3.org/2000/svg">
<g clip-path="url(#clip0_429_527)">
<path d="M128.228 95.3505C132.78 90.8795 134.37 83.5111 131.778 78.8927C129.187 74.2743 123.397 74.1548 118.844 78.6258C114.292 83.0968 107.895 95.1876 110.486 99.806C113.077 104.424 123.676 99.8215 128.228 95.3505ZM112.519 97.7747C111.549 97.3057 111.285 95.8316 111.929 94.4824C112.573 93.1332 113.881 92.4196 114.851 92.8887C115.82 93.3577 116.084 94.8317 115.44 96.181C114.796 97.5302 113.488 98.2438 112.519 97.7747H112.519Z" fill="#3F3D56"/>
<path d="M122.603 91.9484C122.164 91.5453 121.726 91.1421 121.288 90.7389C120.686 90.2539 120.193 89.646 119.842 88.9553C119.462 87.9914 119.366 86.9376 119.566 85.9203C119.805 84.4452 120.489 83.0798 121.526 82.0095L121.455 83.0365C121.982 82.4168 122.601 81.8838 123.291 81.4565C123.94 81.119 124.654 81.1428 124.937 81.743C125.26 82.43 124.952 83.6626 125.39 84.2139C126.147 85.1674 128.121 83.108 128.953 83.9551C129.438 84.4487 129.209 85.6197 128.954 86.6054C128.692 87.8231 128.278 89.0026 127.722 90.1157C126.709 91.9524 124.858 93.1665 123.606 92.671C123.231 92.4935 122.891 92.2486 122.603 91.9484Z" fill="#F9A826"/>
<path d="M118.721 92.1953C118.49 91.4083 118.964 90.3846 119.413 89.5226L119.64 89.2859C120.107 89.0493 120.614 88.9024 121.134 88.8526C121.376 88.8344 121.617 88.8995 121.817 89.0371C122.017 89.1748 122.165 89.3769 122.237 89.6103C122.37 90.0723 122.262 90.7323 122.58 91.0022C123.195 91.5242 124.428 89.9074 125.015 90.4708C125.344 90.787 125.106 91.6022 124.683 92.0027C124.282 92.3382 123.788 92.5403 123.269 92.5811C122.516 92.7071 121.763 92.833 121.011 92.9589C120.57 93.0609 120.116 93.084 119.668 93.027C119.448 92.9916 119.243 92.8949 119.076 92.7478C118.908 92.6008 118.785 92.4093 118.721 92.1953Z" fill="#2F2E41"/>
<path d="M116.238 92.7809C116.397 91.617 117.281 89.7439 118.07 88.143L118.377 87.6554C118.817 87.1266 119.324 86.658 119.885 86.2614C120.314 86.025 120.612 86.1994 120.504 86.9726C120.408 87.6571 120.012 88.7727 120.167 89.061C120.466 89.6184 122.288 86.4342 122.543 87.0717C122.687 87.4295 122.105 88.8565 121.55 89.7001C121.151 90.3198 120.641 90.8593 120.046 91.2909C119.329 91.8441 118.612 92.3972 117.894 92.9502C117.543 93.2718 117.132 93.5211 116.686 93.6843C116.354 93.7441 116.142 93.4872 116.238 92.7809Z" fill="#FF6584"/>
<path d="M116.486 97.0112C116.38 96.4891 116.161 95.9969 115.845 95.5691C115.529 95.1414 115.124 94.7886 114.658 94.5355C114.192 94.2825 113.677 94.1354 113.148 94.1046C112.62 94.0737 112.091 94.16 111.599 94.3572L103.182 84.557L101.367 91.037L109.638 99.35C110.022 100.16 110.688 100.8 111.509 101.149C112.33 101.498 113.25 101.531 114.094 101.243C114.938 100.955 115.648 100.365 116.089 99.5846C116.53 98.8047 116.671 97.8891 116.486 97.0112Z" fill="#FFB8B8"/>
<path d="M88.5434 59.6867L86.3112 63.4939C86.3112 63.4939 92.2 66.4308 92.3144 68.7494C92.4289 71.0681 92.8503 70.4801 93.7264 71.1166C94.6025 71.7531 95.6412 73.4019 95.6743 75.2144C95.7075 77.0269 109.635 91.0702 109.635 91.0702L105.842 96.3623C104.607 95.2051 103.234 94.2073 101.754 93.392C99.4988 92.2009 93.2407 89.9906 92.7861 88.7661C92.3315 87.5416 90.4999 86.6511 88.7478 85.3781C86.9956 84.1051 90.7508 83.0245 87.8305 80.9028C84.9102 78.7812 69.0648 62.0783 66.2258 60.4629C63.3868 58.8474 63.3687 53.916 63.3687 53.916L65.476 50.976L88.5434 59.6867Z" fill="#3F3D56"/>
<path d="M215.451 159.104V157.244C215.5 156.695 215.5 156.143 215.451 155.594V3.55744C215.451 2.61395 215.079 1.70911 214.416 1.04196C213.753 0.374814 212.855 1.52588e-05 211.918 1.52588e-05C210.98 1.52588e-05 210.082 0.374814 209.419 1.04196C208.756 1.70911 208.384 2.61395 208.384 3.55744V155.594C208.335 156.143 208.335 156.695 208.384 157.244V159.104L172.612 232.788C173.456 233.638 174.457 234.311 175.56 234.771C176.662 235.231 177.844 235.467 179.037 235.467C180.23 235.467 181.412 235.231 182.514 234.771C183.617 234.311 184.618 233.638 185.462 232.788L208.384 174.238V231.91C208.384 232.853 208.756 233.758 209.419 234.425C210.082 235.093 210.98 235.467 211.918 235.467C212.855 235.467 213.753 235.093 214.416 234.425C215.079 233.758 215.451 232.853 215.451 231.91V174.238L238.373 232.788C239.217 233.638 240.218 234.311 241.321 234.771C242.423 235.231 243.605 235.467 244.798 235.467C245.991 235.467 247.173 235.231 248.275 234.771C249.378 234.311 250.379 233.638 251.223 232.788L215.451 159.104Z" fill="#E6E6E6"/>
<path d="M39.0789 213.763C35.2305 209.936 31.9526 205.568 29.3469 200.795C26.7491 196.047 24.8304 190.953 23.6475 185.665C22.4483 180.298 22.0511 174.781 22.4691 169.296C23.3358 158.125 27.4359 147.454 34.2625 138.604C34.6793 138.066 35.1061 137.536 35.543 137.014C36.03 136.43 36.8575 137.271 36.3739 137.85C29.4077 146.26 25.0434 156.541 23.821 167.421C22.9369 175.736 23.9241 184.144 26.7093 192.022C29.4946 199.899 34.0063 207.045 39.9098 212.927C40.4491 213.462 39.6181 214.298 39.0789 213.763Z" fill="#E6E6E6"/>
<path d="M33.7888 139.609C34.2645 139.43 34.7304 139.225 35.1844 138.996C35.2073 139.031 35.2297 139.068 35.2527 139.103L33.7888 139.609Z" fill="#E6E6E6"/>
<path d="M42.8608 129.174C42.6685 130.258 42.3213 131.308 41.83 132.292C40.4736 135.034 38.3129 137.291 35.6405 138.757C35.4925 138.836 35.3397 138.921 35.1868 138.995C35.0043 138.707 34.8169 138.419 34.6393 138.131C33.4409 136.2 32.3756 134.169 31.8873 131.954C31.3152 129.367 31.6259 126.463 33.2732 124.392C34.9155 122.322 38.0522 121.393 40.3258 122.734C40.9823 123.129 41.5393 123.671 41.9534 124.318C41.7265 124.601 41.4996 124.879 41.2727 125.162C41.2528 125.188 41.2314 125.213 41.2086 125.236C41.0113 125.485 40.8091 125.728 40.6119 125.976C39.7882 126.994 38.9695 128.017 38.1459 129.03C39.3068 129.245 40.4881 129.326 41.6673 129.273C41.761 129.268 41.8596 129.263 41.9533 129.258C42.2542 129.238 42.56 129.214 42.8608 129.174Z" fill="#E6E6E6"/>
<path d="M26.2255 149.536L25.9098 153.677L25.826 154.799C25.7372 154.755 25.6435 154.71 25.5548 154.665C22.4871 153.132 19.7797 150.958 17.6134 148.287C15.4472 145.616 13.8721 142.511 12.9932 139.179C12.6994 138.023 12.4933 136.846 12.3767 135.658C13.9746 135.41 15.5775 135.157 17.1754 134.909C15.8817 133.214 14.2612 131.801 12.4112 130.753C12.8331 126.609 14.3204 122.647 16.7267 119.258C17.1409 126.2 24.3612 130.614 27.0047 137.034C27.8157 139.043 28.1668 141.21 28.0319 143.374C27.897 145.539 27.2796 147.645 26.2255 149.536Z" fill="#E6E6E6"/>
<path d="M24.8543 185.906C24.4696 185.926 24.0849 185.936 23.7052 185.931C20.4231 185.91 17.1799 185.214 14.1743 183.887C11.1687 182.559 8.46422 180.627 6.22654 178.21C4.41514 176.213 2.9587 173.917 1.92098 171.423C1.95551 171.418 1.9851 171.413 2.01963 171.408C3.61756 171.16 5.22043 170.906 6.81836 170.658C5.12124 168.432 2.86564 166.701 0.283583 165.643C-0.0656162 163.4 -0.092186 161.117 0.204688 158.866C3.81484 164.789 12.2533 165.266 17.5847 169.675C20.1273 171.809 21.8606 174.76 22.4919 178.031C22.6493 178.84 22.7335 179.661 22.7435 180.484C22.7484 180.683 22.7484 180.876 22.7435 181.07L22.8618 181.338L24.8543 185.906Z" fill="#E6E6E6"/>
<path d="M40.7153 192.763C39.6944 194.024 38.6735 195.295 37.6526 196.557C38.9077 196.789 40.1864 196.866 41.46 196.785C40.329 200.863 38.1578 204.573 35.162 207.545C34.8809 207.823 34.5899 208.096 34.294 208.354C34.2348 208.408 34.1707 208.463 34.1115 208.518L33.8452 207.758L33.8402 207.753L32.3311 203.547C30.4164 201.61 29.0904 199.162 28.5088 196.492V196.482C28.1551 194.919 28.0734 193.306 28.2672 191.715C29.1105 184.819 34.9006 178.617 33.4605 171.82C36.6336 174.407 39.0956 177.769 40.6117 181.586C39.7881 182.604 38.9694 183.627 38.1458 184.64C39.3066 184.855 40.488 184.937 41.6672 184.883C42.0802 186.564 42.3052 188.286 42.3379 190.017C42.3428 190.266 42.3428 190.509 42.3379 190.757C41.82 191.403 41.2973 192.043 40.7794 192.689C40.7595 192.715 40.7381 192.74 40.7153 192.763Z" fill="#E6E6E6"/>
<path d="M241.058 227.023C240.442 221.612 240.606 216.14 241.547 210.777C242.478 205.438 244.153 200.258 246.523 195.391C248.93 190.452 252.054 185.902 255.794 181.891C263.423 173.732 273.26 168.004 284.089 165.414C284.749 165.258 285.411 165.114 286.077 164.982C286.82 164.835 286.941 166.012 286.204 166.159C275.54 168.317 265.74 173.575 258.014 181.283C252.15 187.205 247.685 194.38 244.952 202.276C242.219 210.172 241.288 218.587 242.227 226.895C242.314 227.653 241.145 227.78 241.058 227.023Z" fill="#E6E6E6"/>
<path d="M283.094 165.898C283.576 166.059 284.067 166.193 284.563 166.301C284.559 166.343 284.554 166.385 284.55 166.428L283.094 165.898Z" fill="#E6E6E6"/>
<path d="M296.66 163.49C295.835 164.213 294.911 164.812 293.915 165.269C291.151 166.551 288.063 166.946 285.068 166.402C284.903 166.371 284.731 166.34 284.566 166.302C284.603 165.962 284.636 165.619 284.677 165.283C284.945 163.022 285.379 160.767 286.377 158.733C287.542 156.356 289.592 154.289 292.164 153.715C294.733 153.137 297.755 154.393 298.693 156.872C298.958 157.594 299.055 158.367 298.975 159.133C298.622 159.21 298.272 159.284 297.919 159.361C297.887 159.369 297.855 159.375 297.823 159.379C297.515 159.448 297.206 159.51 296.897 159.579C295.622 159.852 294.347 160.133 293.075 160.403C293.846 161.303 294.716 162.112 295.668 162.814C295.744 162.869 295.824 162.928 295.9 162.983C296.147 163.157 296.4 163.331 296.66 163.49Z" fill="#E6E6E6"/>
<path d="M271.021 168.862L268.197 171.89L267.433 172.712C267.392 172.621 267.347 172.527 267.306 172.436C265.869 169.306 265.113 165.904 265.087 162.456C265.061 159.008 265.767 155.594 267.156 152.443C267.647 151.357 268.219 150.309 268.867 149.311C270.267 150.125 271.674 150.939 273.073 151.754C273.12 149.617 272.737 147.493 271.948 145.509C274.856 142.546 278.481 140.397 282.465 139.275C278.468 144.945 281.347 152.94 279.41 159.611C278.792 161.689 277.716 163.599 276.264 165.2C274.812 166.802 273.02 168.054 271.021 168.862Z" fill="#E6E6E6"/>
<path d="M247.313 196.34C247.001 196.113 246.695 195.878 246.403 195.635C243.858 193.548 241.763 190.959 240.248 188.028C238.732 185.098 237.827 181.886 237.588 178.591C237.419 175.891 237.713 173.183 238.457 170.585C238.487 170.603 238.513 170.617 238.543 170.635C239.943 171.45 241.35 172.264 242.75 173.079C242.813 170.273 242.133 167.501 240.779 165.048C241.903 163.079 243.303 161.284 244.936 159.716C244.062 166.61 250.342 172.305 251.752 179.105C252.405 182.372 251.918 185.766 250.374 188.713C249.994 189.442 249.548 190.135 249.044 190.783C248.924 190.941 248.803 191.092 248.679 191.24L248.604 191.523L247.313 196.34Z" fill="#E6E6E6"/>
<path d="M255.405 211.69C253.825 212.029 252.238 212.376 250.657 212.714C251.491 213.687 252.44 214.554 253.482 215.294C250.062 217.759 246.061 219.28 241.877 219.706C241.485 219.745 241.088 219.774 240.697 219.789C240.616 219.794 240.533 219.796 240.452 219.801L240.718 219.041L240.717 219.034L242.159 214.805C241.873 212.087 242.363 209.343 243.572 206.895L243.578 206.887C244.275 205.446 245.215 204.138 246.357 203.02C251.307 198.178 259.679 196.998 262.788 190.793C263.651 194.811 263.476 198.984 262.282 202.915C261.006 203.189 259.732 203.469 258.459 203.739C259.23 204.639 260.1 205.448 261.052 206.15C260.328 207.721 259.431 209.205 258.379 210.574C258.228 210.771 258.077 210.961 257.918 211.151C257.113 211.327 256.307 211.497 255.502 211.673C255.47 211.681 255.438 211.686 255.405 211.69Z" fill="#E6E6E6"/>
<path d="M277.355 133.996H146.48C144.958 133.994 143.5 133.385 142.424 132.302C141.348 131.219 140.743 129.751 140.741 128.219V36.0997C140.743 34.5681 141.348 33.0997 142.424 32.0167C143.5 30.9336 144.958 30.3244 146.48 30.3227H277.355C278.877 30.3245 280.335 30.9337 281.411 32.0167C282.487 33.0998 283.092 34.5681 283.093 36.0997V128.219C283.092 129.751 282.486 131.219 281.411 132.302C280.335 133.385 278.877 133.994 277.355 133.996Z" fill="#F2F2F2"/>
<path d="M231.268 36.0824H192.567C190.113 36.0796 187.761 35.0971 186.026 33.3505C184.291 31.6038 183.315 29.2356 183.312 26.7654V26.596H240.523V26.7654C240.52 29.2356 239.544 31.6038 237.809 33.3505C236.074 35.0971 233.722 36.0796 231.268 36.0824Z" fill="#E6E6E6"/>
<path d="M231.436 139.756H192.735C190.282 139.753 187.929 138.77 186.194 137.024C184.459 135.277 183.484 132.909 183.481 130.439V130.269H240.691V130.439C240.688 132.909 239.712 135.277 237.977 137.024C236.242 138.77 233.89 139.753 231.436 139.756Z" fill="#E6E6E6"/>
<path d="M222.013 116.209C222.013 121.823 217.83 115.531 212.254 115.531C209.576 115.531 207.009 114.461 205.115 112.555C203.222 110.648 202.158 108.063 202.158 105.367C202.158 102.672 203.222 100.086 205.115 98.1804C207.009 96.2742 209.576 95.2034 212.254 95.2034C217.83 95.2034 222.013 110.596 222.013 116.209Z" fill="#F9A826"/>
<path d="M183.313 65.3888C183.313 68.0845 182.249 70.6697 180.356 72.5759C178.462 74.482 175.894 75.5529 173.217 75.5529C167.641 75.5529 164.803 86.9259 164.803 81.3125C164.803 75.699 167.641 55.2247 173.217 55.2247C175.894 55.2247 178.462 56.2956 180.356 58.2017C182.249 60.1078 183.313 62.6931 183.313 65.3888Z" fill="#F9A826"/>
<path d="M169.723 54.1831C171.18 53.3274 172.965 53.6216 174.349 54.4885C175.923 55.4746 176.794 57.1729 177.178 58.9555C177.563 60.8711 177.556 62.8456 177.159 64.7586C176.783 66.6034 175.822 68.5633 173.871 69.0928C172.571 69.4457 171.118 68.9909 170.644 67.6404C170.462 67.0981 170.421 66.5177 170.526 65.955C170.632 65.3924 170.879 64.8665 171.245 64.4281C172.339 63.1884 174.247 63.1244 175.68 63.7431C177.365 64.4707 178.392 66.113 178.825 67.8511C179.339 69.9176 179.015 72.061 178.474 74.0865C177.885 76.2881 177.106 78.4404 176.405 80.6074C175.038 84.8333 173.781 89.1393 173.454 93.5929C172.954 100.396 175.179 108.246 181.356 111.896C184.69 113.866 188.702 114.18 192.434 113.402C196.371 112.581 199.886 110.534 202.939 107.952C204.525 106.586 206.018 105.115 207.407 103.547C207.825 103.039 208.384 102.668 209.013 102.481C209.641 102.294 210.311 102.299 210.936 102.496C214.147 103.523 213.556 108.698 210.378 109.333C208.935 109.622 207.37 108.923 206.301 107.979C205.132 106.904 204.314 105.497 203.954 103.945C203.146 100.681 204.09 97.0886 206.007 94.3924C208.173 91.3464 211.679 89.4497 215.148 88.3217C219.098 87.0374 223.234 86.6589 227.342 86.24C231.546 85.8114 235.794 85.3113 239.763 83.7719C242.956 82.5226 245.923 80.7503 248.542 78.5266C253.822 74.0815 257.562 68.0618 259.221 61.3371C259.608 59.7116 259.858 58.0564 259.97 56.3889C260.015 55.736 259.005 55.7388 258.961 56.3889C258.467 63.6584 255.121 70.5734 250.06 75.7356C247.536 78.3217 244.581 80.4419 241.33 81.9997C237.412 83.8635 233.153 84.5958 228.877 85.0626C224.509 85.5394 220.086 85.8207 215.843 87.046C212.092 88.1292 208.352 89.9662 205.797 93.0207C203.544 95.714 202.309 99.4088 202.749 102.928C203.158 106.203 205.232 109.575 208.64 110.287C210.239 110.621 211.894 110.196 212.961 108.902C213.552 108.166 213.93 107.279 214.051 106.34C214.172 105.401 214.033 104.446 213.648 103.582C213.158 102.649 212.339 101.933 211.353 101.574C210.367 101.214 209.283 101.237 208.313 101.638C207.603 101.967 206.977 102.454 206.482 103.062C203.569 106.278 200.262 109.279 196.283 111.081C192.57 112.762 188.198 113.394 184.272 112.108C176.84 109.673 173.993 101.118 174.441 93.9298C174.734 89.2252 176.138 84.6811 177.589 80.2294C178.33 77.9561 179.174 75.689 179.695 73.3511C180.161 71.2579 180.303 69.0402 179.624 66.9758C179.032 65.1741 177.838 63.5697 176.071 62.8146C174.465 62.1288 172.498 62.1449 171.063 63.2265C168.987 64.7904 168.797 68.6679 171.36 69.8715C173.061 70.6702 175.109 70.0484 176.364 68.7221C177.77 67.2352 178.228 65.1395 178.386 63.1563C178.685 59.4087 177.864 54.8884 174.078 53.1973C172.518 52.5006 170.718 52.4222 169.214 53.3054C169.103 53.3758 169.023 53.4867 168.992 53.6149C168.961 53.743 168.981 53.8782 169.047 53.9921C169.113 54.106 169.221 54.1895 169.347 54.2251C169.473 54.2607 169.608 54.2457 169.723 54.183L169.723 54.1831Z" fill="#3F3D56"/>
<path d="M260.378 58.9516C260.378 64.9043 269.659 80.0826 266.536 84.6395C266.149 85.2087 265.74 85.7621 265.308 86.2997C263.911 88.0581 262.309 89.6405 260.536 91.0124C260.236 91.2496 259.934 91.4766 259.627 91.6968C258.539 92.4737 257.398 93.1722 256.212 93.7872C255.996 93.8956 255.777 94.004 255.559 94.1124C249.562 97.014 242.738 97.6796 236.299 95.9908C229.861 94.3019 224.227 90.3682 220.399 84.8896C216.572 79.4111 214.799 72.743 215.396 66.0719C215.994 59.4009 218.923 53.1597 223.662 48.4589C223.911 48.2082 224.167 47.9642 224.43 47.7237C227.033 45.3218 230.065 43.4376 233.365 42.1707C233.368 42.1707 233.368 42.1673 233.371 42.1673C238.32 40.2756 243.697 39.8236 248.889 40.8629H248.895C249.01 40.8866 249.124 40.9104 249.239 40.9375C261.949 43.6445 260.378 45.3486 260.378 58.9516Z" fill="#F9A826"/>
<path d="M256.215 93.6584C256.219 93.7013 256.218 93.7445 256.211 93.7872C255.996 93.8956 255.777 94.004 255.559 94.1124C255.461 94.0817 255.375 94.0219 255.312 93.9408C255.249 93.8597 255.212 93.7612 255.205 93.6584C255.163 93.1465 255.065 92.6409 254.912 92.1508C253.6 87.8954 248.996 85.7203 244.978 84.9512C240.061 84.006 234.889 84.399 230.211 82.356C228.293 81.5702 226.594 80.326 225.261 78.7308C223.866 76.9738 223.164 74.7596 223.292 72.5138C223.568 67.2319 227.267 63.0985 228.532 58.1147C229.054 56.0616 229.054 53.9203 228.125 51.9824C227.337 50.3358 225.924 48.8891 224.039 48.6858C223.963 48.6802 223.89 48.6568 223.824 48.6174C223.759 48.5779 223.703 48.5237 223.662 48.4588C223.911 48.2081 224.167 47.9642 224.43 47.7236C224.771 47.775 225.106 47.8624 225.429 47.9845C227.273 48.696 228.555 50.3053 229.276 52.1111C230.107 54.2015 230.03 56.4512 229.451 58.5958C228.101 63.5965 224.137 67.9365 224.292 73.3269C224.426 77.999 228.478 80.9127 232.564 82.1459C237.618 83.6705 243.094 82.9489 248.094 84.714C252.028 86.1031 255.848 89.2099 256.215 93.6584Z" fill="#3F3D56"/>
<path d="M260.536 91.0124C260.237 91.2495 259.934 91.4765 259.627 91.6968C259.586 91.6526 259.555 91.6001 259.536 91.5429C259.517 91.4856 259.51 91.4249 259.516 91.3647C259.685 86.982 258.183 82.7002 255.32 79.3949C254.08 77.9433 252.605 76.713 250.958 75.7561C249.235 74.7634 247.344 74.2315 245.47 73.6149C243.625 73.0084 241.751 72.2732 240.341 70.8875C238.904 69.4747 238.197 67.5605 237.982 65.5819C237.474 60.8929 239.806 56.5833 239.994 51.9654C240.078 49.9055 239.627 47.9032 238.359 46.2465C237.262 44.8167 235.643 43.841 233.809 44.0578C233.203 44.1323 233.173 43.2379 233.698 43.0651C233.734 43.0533 233.771 43.0453 233.809 43.0414C235.942 42.7907 237.877 43.9697 239.146 45.6231C240.624 47.5441 241.135 49.8852 240.987 52.2805C240.698 56.9153 238.275 61.3706 239.062 66.0799C239.197 67.0706 239.538 68.0216 240.061 68.8714C240.585 69.7211 241.28 70.4507 242.101 71.0129C243.79 72.1343 245.786 72.6391 247.691 73.2625C249.591 73.8467 251.387 74.7319 253.011 75.8849C254.6 77.056 255.993 78.4754 257.137 80.0894C259.419 83.2616 260.613 87.0962 260.536 91.0124Z" fill="#3F3D56"/>
<path d="M266.536 84.6395C266.149 85.2087 265.74 85.7621 265.308 86.2997C265.758 83.6674 265.658 80.9697 265.015 78.3785C264.229 75.1163 262.639 72.1064 260.391 69.6272C259.265 68.3932 257.968 67.3287 256.541 66.4662C254.909 65.4837 253.125 64.6536 251.971 63.068C249.467 59.6258 251.157 55.1333 251.964 51.4336C252.388 49.5024 252.617 47.4459 251.833 45.5757C251.224 44.1256 250.019 42.767 248.384 42.601C247.741 42.5366 247.738 41.5168 248.384 41.5846C248.505 41.5981 248.626 41.6151 248.747 41.6354C250.534 41.9607 251.911 43.3023 252.658 44.9557C253.627 47.1138 253.435 49.4448 252.94 51.7046C252.126 55.4213 250.238 60.3441 253.613 63.3797C255.037 64.6604 256.884 65.3685 258.419 66.5035C259.794 67.5154 261.026 68.711 262.08 70.0575C265.311 74.1933 266.899 79.3907 266.536 84.6395Z" fill="#3F3D56"/>
<path d="M85.8706 225.105H91.8427L94.6843 201.915H85.8706V225.105Z" fill="#FFB6B6"/>
<path d="M82.7188 235.522H87.0014L87.7658 231.452L89.7237 235.522H101.082C101.627 235.523 102.157 235.347 102.596 235.023C103.034 234.698 103.358 234.24 103.52 233.717C103.682 233.194 103.674 232.632 103.496 232.114C103.319 231.595 102.981 231.148 102.533 230.837L93.4626 224.53V220.414L83.9217 220.988L82.7188 235.522Z" fill="#2F2E41"/>
<path d="M39.5701 213.177L44.7069 216.243L58.9007 197.757L51.32 193.231L39.5701 213.177Z" fill="#FFB6B6"/>
<path d="M31.5811 220.518L35.2646 222.717L37.9846 219.609L37.6061 224.115L47.376 229.948C47.8443 230.228 48.3891 230.35 48.9309 230.295C49.4727 230.241 49.9831 230.014 50.3876 229.647C50.7921 229.28 51.0696 228.793 51.1794 228.256C51.2892 227.719 51.2257 227.161 50.9981 226.663L46.3917 216.58L48.4768 213.041L39.9801 208.634L31.5811 220.518Z" fill="#2F2E41"/>
<path d="M86.5168 76.8301L91.4382 95.4554L63.8687 95.8207L67.4961 77.9255L86.5168 76.8301Z" fill="#FFB6B6"/>
<path d="M91.5444 95.2201L97.3997 114.446L99.9925 165.862L93.2728 214.953H85.8363L82.7895 166.662L75.2955 133.62L79.683 168.179L56.7017 202.005H45.4089L66.1706 164.73L54.0852 126.034C54.0852 126.034 55.2972 106.899 62.9617 96.7338L64.8273 91.3075L91.5444 95.2201Z" fill="#2F2E41"/>
<path d="M91.9258 59.6763C91.91 59.5089 91.8862 59.3335 91.8546 59.1662C91.2587 55.1474 89.1056 51.53 85.8666 49.1056C82.6277 46.6813 78.5666 45.6475 74.5723 46.2306C70.8211 46.7965 67.4039 48.7207 64.9614 51.6423V51.6503C64.8348 51.8017 64.716 51.9611 64.5973 52.1205C64.3835 52.3915 64.1856 52.6784 63.9956 52.9653C62.2795 55.5756 61.3957 58.6509 61.4622 61.7804C61.4622 61.7804 62.9031 69.5035 63.2039 71.5518C63.4098 72.8749 63.5681 74.1741 63.6868 75.4413C63.7581 76.0789 63.8135 76.7086 63.861 77.3222V77.3302C64.0985 80.3668 64.1777 83.0927 64.2489 85.2047C64.2806 86.3525 65.0723 89.6123 65.1198 89.6521C65.1686 89.6893 65.2215 89.7252 65.2776 89.7597C65.6791 89.995 66.1319 90.1271 66.5962 90.1443C67.0604 90.1615 67.5217 90.0633 67.9393 89.8584L71.5007 88.1856C73.8653 87.0779 76.4938 86.6692 79.0802 87.0068C83.3129 87.5592 89.4778 88.3178 89.7574 88.0885C90.0899 87.8015 91.6962 73.3292 92.1158 68.7782C92.1712 68.1247 92.2188 67.4472 92.2425 66.7219V66.7139C92.312 64.3634 92.2061 62.0109 91.9258 59.6763Z" fill="#3F3D56"/>
<path d="M112.404 62.2784C112.244 62.7571 111.982 63.1946 111.636 63.5603C111.29 63.9259 110.869 64.2107 110.401 64.3947C109.934 64.5786 109.433 64.6572 108.932 64.6248C108.432 64.5925 107.944 64.4501 107.504 64.2076L98.4662 72.4479L97.501 66.1433L106.231 59.2847C106.685 58.5675 107.384 58.0428 108.197 57.8099C109.009 57.5771 109.878 57.6523 110.639 58.0213C111.399 58.3903 111.999 59.0275 112.325 59.8121C112.65 60.5967 112.678 61.4742 112.404 62.2784H112.404Z" fill="#FFB8B8"/>
<path d="M78.7659 46.2982C78.7659 46.2982 87.6605 47.9705 82.5983 65.353L84.5528 73.9689L93.7236 68.6583L94.279 66.4134L102.308 60.7392L106.105 67.6295L101.489 72.0701L100.155 74.8422L97.7873 75.6307L90.4518 82.6874L87.3759 84.5798C87.3759 84.5798 83.465 87.0195 79.9861 85.6977C79.0573 85.3477 78.1889 84.8529 77.4126 84.2316C75.8942 83.0126 74.5467 81.1494 73.703 78.3326C70.5729 67.8823 69.3979 60.5746 69.3979 60.5746L78.7659 46.2982Z" fill="#3F3D56"/>
<path d="M111.816 70.7464L106.431 50.3527C106.402 50.2415 106.416 50.1232 106.471 50.0222C106.525 49.9212 106.617 49.8452 106.725 49.8098C106.834 49.7744 106.952 49.7823 107.055 49.832C107.158 49.8817 107.238 49.9692 107.279 50.0767L114.527 69.1369L111.816 70.7464Z" fill="#3F3D56"/>
<path d="M116.299 75.3698C115.514 75.2051 114.751 74.9475 114.026 74.6026C113.658 74.4257 113.302 74.2261 112.954 74.0201C112.83 73.9506 112.707 73.8762 112.586 73.8046C112.296 73.6342 112.006 73.4638 111.714 73.2908C111.467 73.1469 111.217 73.0004 110.973 72.8544C110.611 72.6421 110.222 72.3953 110.117 71.9856C110.085 71.7917 110.096 71.593 110.15 71.404C110.203 71.215 110.298 71.0403 110.427 70.8925C110.692 70.5809 110.998 70.3074 111.337 70.0799C112.097 69.5178 112.858 68.9566 113.619 68.3963L113.823 67.9469C114.441 68.2098 115.009 68.5796 115.501 69.0395C115.695 69.2384 115.848 69.4747 115.949 69.7345C116.05 69.9942 116.098 70.2718 116.09 70.5507C116.083 70.674 116.063 70.7962 116.03 70.9152C115.883 71.4361 115.498 71.8793 115.27 72.3789C115.223 72.4835 115.183 72.5909 115.15 72.7004C115.048 73.0222 115.017 73.3628 115.061 73.6978C115.104 74.0328 115.221 74.354 115.402 74.6385C115.627 74.9616 115.938 75.2149 116.299 75.3698Z" fill="#CCCCCC"/>
<path d="M117.425 75.5582C117.04 75.5868 116.654 75.5222 116.299 75.3698C116.671 75.4516 117.047 75.5145 117.425 75.5582Z" fill="#E6E6E6"/>
<path d="M116.299 75.3698C115.514 75.2051 114.751 74.9475 114.026 74.6026C113.658 74.4257 113.302 74.2261 112.954 74.0201C112.83 73.9506 112.707 73.8763 112.586 73.8046C112.296 73.6342 112.006 73.4638 111.714 73.2908C111.816 73.1529 111.925 73.0205 112.041 72.894C113.12 71.7124 114.593 71.0458 116.09 70.5508C116.083 70.674 116.063 70.7962 116.03 70.9152C115.883 71.4361 115.498 71.8793 115.27 72.3789C115.223 72.4835 115.183 72.5909 115.15 72.7004C115.048 73.0222 115.017 73.3628 115.061 73.6978C115.104 74.0328 115.221 74.354 115.402 74.6385C115.627 74.9617 115.938 75.215 116.299 75.3698Z" fill="#F9A826"/>
<path d="M84.991 37.6038C88.079 31.9167 86.0029 24.7861 80.3539 21.6772C74.705 18.5684 67.6222 20.6585 64.5342 26.3456C61.4462 32.0327 63.5223 39.1633 69.1713 42.2722C74.8203 45.381 81.903 43.2909 84.991 37.6038Z" fill="#FFB6B6"/>
<path d="M67.6529 22.3994V22.4077C67.6541 22.9183 67.5894 23.4268 67.4605 23.9206C67.44 24.0072 67.4154 24.0979 67.3868 24.1845V24.1886C67.112 25.0705 66.6382 25.8763 66.0024 26.5429C65.3665 27.2095 64.586 27.7187 63.7219 28.0308C63.5949 28.0803 63.4639 28.1215 63.3329 28.1586C63.0568 28.2392 62.7747 28.2971 62.4893 28.3317C62.233 28.3683 61.9743 28.3862 61.7154 28.3853C61.513 28.3862 61.3107 28.3766 61.1094 28.3565C60.6381 28.3084 60.1746 28.2018 59.7294 28.039C59.6597 28.0186 59.5913 27.9938 59.5246 27.9648C59.4912 27.9529 59.4584 27.9391 59.4263 27.9236C58.6835 27.6106 58.0116 27.1488 57.4514 26.5663C56.8912 25.9839 56.4544 25.2929 56.1676 24.5353C55.8808 23.7777 55.7499 22.9693 55.7828 22.1592C55.8158 21.3492 56.0119 20.5543 56.3593 19.8229L56.3634 19.8187C56.6545 19.2051 57.0494 18.6471 57.5304 18.1697C58.6033 17.0938 59.0761 14.3972 60.7058 14.3972C60.7837 14.3959 60.8616 14.3986 60.9392 14.4054C62.0325 14.4426 64.0536 16.8175 64.9135 17.3782C65.5521 17.7844 66.1058 18.3124 66.5432 18.9324C67 19.5702 67.3258 20.2934 67.5014 21.0596C67.6019 21.499 67.6527 21.9485 67.6529 22.3994Z" fill="#2F2E41"/>
<path d="M60.3985 20.3179C59.4764 21.3987 58.0327 21.8188 56.7303 22.3812C54.4318 23.3964 52.414 24.9607 50.8517 26.9385C49.2895 28.9163 48.23 31.2479 47.7652 33.7311C47.4051 35.7538 47.4522 37.8476 46.8835 39.8194C46.3181 41.7912 44.9182 43.7258 42.9091 44.068C41.5495 44.3017 40.1866 43.7732 38.9077 43.2514C38.2044 42.9669 37.5011 42.6811 36.7977 42.3943C37.5313 40.541 38.2639 38.6878 38.9952 36.8345C37.8198 38.5835 36.4527 40.1939 34.9199 41.6354C32.3993 40.6122 29.8764 39.589 27.3513 38.5658C33.5637 38.5895 32.5036 32.5182 33.8935 26.4265C34.6574 23.0792 41.1625 20.8126 42.4379 17.6279C43.1271 15.9005 44.2935 14.408 45.7989 13.3271C47.3043 12.2462 49.0858 11.6222 50.9325 11.5288C52.7792 11.4354 54.6138 11.8766 56.2192 12.8002C57.8247 13.7238 59.1337 15.091 59.9913 16.7402C61.2668 17.2518 61.3038 19.2507 60.3985 20.3179Z" fill="#2F2E41"/>
<path d="M85.3137 20.2346C84.1763 18.7267 81.3111 18.668 80.7362 20.4708L79.528 18.8211C77.9604 15.3727 73.8242 16.0743 70.0844 16.5292C66.3447 16.9841 63.0491 19.6372 61.3761 23.0351C59.703 26.4329 59.5513 30.4683 60.5149 34.1345C61.1632 36.6013 62.3536 39.0081 64.3287 40.6072C66.3037 42.2063 75.5884 45.9881 76.3613 42.7317C75.3951 46.9801 77.3389 46.315 80.2163 49.5714C81.7066 45.0643 82.4052 36.5722 83.8956 32.0651C84.1199 31.3866 84.3442 30.7082 84.5685 30.0298C85.0414 28.5997 85.515 27.1672 85.8567 25.6997C86.2859 23.8563 86.4511 21.7425 85.3137 20.2346Z" fill="#2F2E41"/>
<path d="M77.6513 33.1729L77.1531 29.9794C77.4917 26.0075 76.9389 19.6897 79.5281 18.8211L81.1114 20.4151C80.1099 20.7514 78.2049 26.6909 77.6513 33.1729Z" fill="#FF6584"/>
<path d="M81.3439 16.2625C81.3439 18.695 80.5152 20.6669 79.493 20.6669C78.4708 20.6669 77.6421 18.695 77.6421 16.2625C77.6421 13.83 79.493 11.8581 79.493 11.8581C79.493 11.8581 81.3439 13.83 81.3439 16.2625Z" fill="#FF6584"/>
<path d="M82.8707 17.3501C81.8998 19.5776 80.354 21.0481 79.4179 20.6345C78.4818 20.221 78.51 18.08 79.4809 15.8526C80.4518 13.6251 82.9337 12.5681 82.9337 12.5681C82.9337 12.5681 83.8416 15.1226 82.8707 17.3501Z" fill="#FF6584"/>
</g>
<defs>
<clipPath id="clip0_429_527">
<rect width="299" height="236" fill="white"/>
</clipPath>
</defs>
</svg>
